<svg version="1.1" id="_x31__x2C_5" xmlns="http://www.w3.org/2000/svg" x="0" y="0" viewBox="0 0 512 512" xml:space="preserve"><style>.st0{fill:#2749a8}</style><path class="st0" d="M432 490.7H74.7c-8.8 0-16-7.2-16-16s7.2-16 16-16H432c14.7 0 26.7-12 26.7-26.7V74.7c0-8.8 7.2-16 16-16s16 7.2 16 16V432c0 32.4-26.3 58.7-58.7 58.7zM39.7 467c-6.4 0-12.4-3.8-14.8-10.1-2.3-5.8-3.5-12.4-3.5-19.6V80c0-32.4 26.3-58.7 58.7-58.7h357.3c7.2 0 13.8 1.2 19.6 3.5 8.2 3.3 12.2 12.6 8.9 20.8-3.3 8.2-12.8 12.2-20.8 8.9-1.9-.8-4.6-1.2-7.7-1.2H80c-14.7 0-26.7 12-26.7 26.7v357.3c0 3.1.4 5.7 1.2 7.7 3.3 8.2-.7 17.5-8.9 20.8-1.9.8-3.9 1.2-5.9 1.2z"/><path class="st0" d="M16 490.7c-4.1 0-8.2-1.6-11.3-4.7-6.3-6.3-6.3-16.4 0-22.6L463.4 4.7c6.3-6.3 16.4-6.3 22.6 0 6.3 6.3 6.3 16.4 0 22.6L27.3 486c-3.1 3.1-7.2 4.7-11.3 4.7z"/><path class="st0" d="M229.3 232.1c-8.8 0-16-7.2-16-16V208c0-8.8 7.2-16 16-16s16 7.2 16 16v8.1c0 8.8-7.1 16-16 16zM256 320h-13.4c-8.8 0-16-7.2-16-16s7.2-16 16-16H256c8.5 0 16.5-3.3 22.6-9.4s9.4-14.1 9.4-22.6c0-2.9-.3-5.5-.9-7.6-2.4-8.5 2.5-17.3 11.1-19.7 8.4-2.5 17.3 2.6 19.7 11.1 1.4 4.9 2.1 10.4 2.1 16.3 0 17.1-6.7 33.2-18.8 45.2S273.1 320 256 320zm-101.3 0c-8.8 0-16-7.2-16-16v-69.3c0-5.9-4.8-10.7-10.7-10.7s-10.7 4.8-10.7 10.7V304c0 8.8-7.2 16-16 16s-16-7.2-16-16v-69.3c0-23.5 19.1-42.7 42.7-42.7s42.7 19.1 42.7 42.7V304c0 8.8-7.2 16-16 16z"/><path class="st0" d="M154.7 288h-53.3c-8.8 0-16-7.2-16-16s7.2-16 16-16h53.3c8.8 0 16 7.2 16 16s-7.2 16-16 16zm233.7 32h-31.1c-8.8 0-16-7.2-16-16s7.2-16 16-16h31.1c3.4 0 6.2-3.7 6.2-8s-2.9-8-6.2-8h-8.9c-21.1 0-38.2-17.9-38.2-40s17.2-40 38.2-40h31.1c8.8 0 16 7.2 16 16s-7.2 16-16 16h-31.1c-3.4 0-6.2 3.7-6.2 8s2.9 8 6.2 8h8.9c21.1 0 38.2 17.9 38.2 40 .1 22.1-17.1 40-38.2 40z"/></svg>