<svg version="1.1" id="Capa_1" xmlns="http://www.w3.org/2000/svg" x="0" y="0" viewBox="0 0 512.1 512.1" xml:space="preserve"><style>.st0{fill:#2749a8}</style><path class="st0" d="M426.6 188.2C403 93.9 307.4 36.7 213.1 60.4 139.4 78.9 85.9 142.5 80.4 218.3c-52.3 8.6-87.7 58-79.1 110.3 7.7 46.5 48 80.6 95.1 80.4h80v-32h-80c-35.3 0-64-28.7-64-64s28.7-64 64-64c8.8 0 16-7.2 16-16-.1-79.5 64.3-144 143.9-144.1 68.8-.1 128.1 48.6 141.4 116.1 1.3 6.7 6.8 11.9 13.6 12.8 43.7 6.2 74.2 46.7 67.9 90.5-5.6 39.3-39.1 68.5-78.8 68.7h-64v32h64c61.9-.2 111.8-50.5 111.7-112.3-.2-51.5-35.4-96.3-85.5-108.5z"/><path class="st0" d="M245 253.7l-64 64 22.6 22.6 36.8-36.6V457h32V303.6l36.6 36.6 22.6-22.6-64-64c-6.2-6.1-16.3-6.1-22.6.1z"/></svg>