<svg version="1.1" id="Слой_1" xmlns="http://www.w3.org/2000/svg" x="0" y="0" viewBox="0 0 512 512" xml:space="preserve"><style>.st0{fill:#2749a8}</style><path class="st0" d="M502 350h-10V30c0-16.5-13.5-30-30-30H50C33.5 0 20 13.5 20 30v320H10c-5.5 0-10 4.5-10 10v30c0 16.5 13.5 30 30 30h242.6v62c0 16.5 13.5 30 30 30H422c16.5 0 30-13.5 30-30v-62h30c16.5 0 30-13.5 30-30v-30c0-5.5-4.5-10-10-10zm-50 0v-20h20v20h-20zM50 20h412c5.5 0 10 4.5 10 10v10H40V30c0-5.5 4.5-10 10-10zM40 330h10c5.5 0 10-4.5 10-10s-4.5-10-10-10H40V60h432v250h-20v-68c0-16.5-13.5-30-30-30H302.6c-4.6 0-9 1.1-12.9 2.9L246.8 172h15.9c5.5 0 10-4.5 10-10s-4.5-10-10-10h-40c-5.5 0-10 4.5-10 10v40c0 5.5 4.5 10 10 10s10-4.5 10-10v-15.9l42.9 42.9c-1.9 3.9-2.9 8.3-2.9 12.9v68H140c-5.5 0-10 4.5-10 10s4.5 10 10 10h132.6v30H206c0-5.5-4.5-10-10-10H40V330zm-10 70c-5.5 0-10-4.5-10-10v-20h168.7c3.5 6 9.9 10 17.3 10h66.6v20H30zm402 82c0 5.5-4.5 10-10 10H302.6c-5.5 0-10-4.5-10-10V246.1l45.9 45.9h-15.9c-5.5 0-10 4.5-10 10s4.5 10 10 10h40c5.5 0 10-4.5 10-10v-40c0-5.5-4.5-10-10-10s-10 4.5-10 10v15.9L306.8 232H422c5.5 0 10 4.5 10 10v240zm60-92c0 5.5-4.5 10-10 10h-30v-30h40v20z"/><path class="st0" d="M362.3 462c-5.5 0-10 4.5-10 10s4.5 10 10 10 10-4.5 10-10-4.4-10-10-10zM387 100h55c5.5 0 10-4.5 10-10s-4.5-10-10-10h-55c-5.5 0-10 4.5-10 10s4.5 10 10 10zm-45 0c5.5 0 10-4.5 10-10s-4.5-10-10-10-10 4.5-10 10 4.5 10 10 10zM95 310c-5.5 0-10 4.5-10 10s4.5 10 10 10 10-4.5 10-10-4.5-10-10-10z"/></svg>