<svg version="1.1" id="Capa_1" xmlns="http://www.w3.org/2000/svg" x="0" y="0" viewBox="0 0 512 512" xml:space="preserve"><style>.st0{fill:#2749a8}</style><path class="st0" d="M508.4 245.9l-144-176c-3-3.7-7.6-5.9-12.4-5.9H224c-6.2 0-11.8 3.6-14.5 9.2-2.6 5.6-1.9 12.2 2.1 17L347.3 256 211.6 421.9c-3.9 4.8-4.7 11.4-2.1 17s8.3 9.1 14.4 9.1h128c4.8 0 9.3-2.1 12.4-5.9l144-176c4.9-5.9 4.9-14.4.1-20.2zM344.4 416h-86.7l122.6-149.9c4.8-5.9 4.8-14.4 0-20.3L257.8 96h86.7l130.9 160-131 160z"/><path class="st0" d="M300.4 245.9l-144-176c-3-3.7-7.6-5.9-12.4-5.9H16c-6.2 0-11.8 3.6-14.5 9.2-2.6 5.6-1.9 12.2 2.1 17L139.3 256 3.6 421.9c-4 4.8-4.7 11.4-2.1 17 2.7 5.6 8.3 9.2 14.5 9.2h128c4.8 0 9.3-2.1 12.4-5.9l144-176c4.8-6 4.8-14.5 0-20.3zM136.4 416H49.8l122.6-149.9c4.8-5.9 4.8-14.4 0-20.3L49.8 96h86.7l130.9 160-131 160z"/></svg>