<svg version="1.1" id="Layer_1" xmlns="http://www.w3.org/2000/svg" x="0" y="0" viewBox="0 0 512 512" xml:space="preserve"><path d="M490.3.8l-479 156.5c-13.5 4.4-15.5 22.8-3.2 30l181 105.3c5.7 3.3 12.8 2.9 18.1-1l50.9-37.8-37.8 50.9c-3.9 5.3-4.3 12.4-1 18.1l105.3 181c7.2 12.3 25.6 10.3 30-3.2l156.5-479c4.3-12.8-8-24.9-20.8-20.8zM334.7 455.3l-81.2-139.7 98-131.9c4.9-6.6 4.2-15.7-1.6-21.5-5.8-5.8-15-6.5-21.5-1.6l-131.9 98-139.8-81.3 413-134.9-135 412.9zm-161.3-93.4L63.7 471.6c-6.4 6.4-16.9 6.5-23.4 0-6.5-6.4-6.5-16.9 0-23.4L150 338.5c6.5-6.4 16.9-6.5 23.4 0s6.5 17 0 23.4zm-144.9 4.2c-6.5-6.5-6.5-16.9 0-23.4l43.3-43.3c6.4-6.5 16.9-6.5 23.4 0s6.5 16.9 0 23.4l-43.3 43.3c-6.5 6.4-16.9 6.4-23.4 0zm184 50.7c6.5 6.4 6.5 16.9 0 23.4l-43.3 43.3c-3.2 3.2-7.5 4.8-11.7 4.8-14.6 0-22.1-17.8-11.7-28.2l43.3-43.3c6.5-6.4 17-6.4 23.4 0z" fill="#2749a8"/></svg>