<svg version="1.1" id="Слой_1" xmlns="http://www.w3.org/2000/svg" x="0" y="0" viewBox="0 0 512 512" xml:space="preserve"><path d="M197.3 170.7h-160C16.7 170.7 0 153.9 0 133.3v-96C0 16.7 16.7 0 37.3 0h160c20.6 0 37.3 16.7 37.3 37.3v96c.1 20.6-16.7 37.4-37.3 37.4zM37.3 32c-2.9 0-5.3 2.4-5.3 5.3v96c0 2.9 2.4 5.3 5.3 5.3h160c2.9 0 5.3-2.4 5.3-5.3v-96c0-2.9-2.4-5.3-5.3-5.3h-160zm160 480h-160C16.7 512 0 495.3 0 474.7v-224c0-20.6 16.7-37.3 37.3-37.3h160c20.6 0 37.3 16.7 37.3 37.3v224c.1 20.6-16.7 37.3-37.3 37.3zm-160-266.7c-2.9 0-5.3 2.4-5.3 5.3v224c0 2.9 2.4 5.3 5.3 5.3h160c2.9 0 5.3-2.4 5.3-5.3v-224c0-2.9-2.4-5.3-5.3-5.3h-160zM474.7 512h-160c-20.6 0-37.3-16.7-37.3-37.3v-96c0-20.6 16.7-37.3 37.3-37.3h160c20.6 0 37.3 16.7 37.3 37.3v96c0 20.6-16.7 37.3-37.3 37.3zm-160-138.7c-2.9 0-5.3 2.4-5.3 5.3v96c0 2.9 2.4 5.3 5.3 5.3h160c2.9 0 5.3-2.4 5.3-5.3v-96c0-2.9-2.4-5.3-5.3-5.3h-160zm160-74.6h-160c-20.6 0-37.3-16.7-37.3-37.3v-224c0-20.6 16.7-37.3 37.3-37.3h160C495.3 0 512 16.7 512 37.3v224c0 20.6-16.7 37.4-37.3 37.4zM314.7 32c-2.9 0-5.3 2.4-5.3 5.3v224c0 2.9 2.4 5.3 5.3 5.3h160c2.9 0 5.3-2.4 5.3-5.3v-224c0-2.9-2.4-5.3-5.3-5.3h-160z" fill="#2749a8"/></svg>